<svg  fill="none" xmlns="http://www.w3.org/2000/svg"><path d="M21 .167C9.5.167.167 9.5.167 21 .167 32.5 9.5 41.833 21 41.833c11.5 0 20.833-9.333 20.833-20.833C41.833 9.5 32.5.167 21 .167zm0 37.5c-9.188 0-16.667-7.48-16.667-16.667 0-9.188 7.48-16.667 16.667-16.667 9.188 0 16.667 7.48 16.667 16.667 0 9.188-7.48 16.667-16.667 16.667zm8.083-24.396l-12.25 12.25-3.916-3.917a2.075 2.075 0 00-2.938 0 2.075 2.075 0 000 2.938l5.396 5.395a2.075 2.075 0 002.938 0l13.729-13.729a2.075 2.075 0 000-2.937 2.1 2.1 0 00-2.959 0z" fill="#000"/></svg>